# xmcd CD database file
#
# Track frame offsets:
#	150
#	18203
#	35953
#	52860
#	72104
#	94337
#	114079
#	135249
#	152954
#
# Disc length: 2946 seconds
#
# Revision: 1
# Processed by: cddbd v1.5.2PL0 Copyright (c) Steve Scherf et al.
# Submitted via: CDex 1.70beta3
#
DISCID=6b0b8009
DTITLE=A-One - SUPER EURO SMASH Vol.1
DYEAR=2012
DGENRE=同人
TTITLE0=FREE BIRD
TTITLE1=SPRING TEARS
TTITLE2=Dear my Princess
TTITLE3=Eternal Mermaid
TTITLE4=RELIGHT MY FIRE
TTITLE5=Be Happy☆ ボーカル
TTITLE6=Wonderful Night!!
TTITLE7=FIGHT OVER FUTURE
TTITLE8=SPECIAL MEGAMIX
EXTD=YEAR: 2012
EXTT0=
EXTT1=
EXTT2=
EXTT3=
EXTT4=
EXTT5=
EXTT6=
EXTT7=
EXTT8=
PLAYORDER=
